HIERARCHY
ROOT Hips
{
	OFFSET -0.001795 -0.223333 0.028219
	CHANNELS 6 Xposition Yposition Zposition Zrotation Yrotation Xrotation 
	JOINT LeftUpLeg
	{
		OFFSET 0.069520 -0.091406 -0.006815
		CHANNELS 3 Zrotation Yrotation Xrotation
		JOINT LeftLeg
		{
			OFFSET 0.034277 -0.375199 -0.004496
			CHANNELS 3 Zrotation Yrotation Xrotation
			JOINT LeftFoot
			{
				OFFSET -0.013596 -0.397961 -0.043693
				CHANNELS 3 Zrotation Yrotation Xrotation
				JOINT LeftToe
				{
					OFFSET 0.026358 -0.055791 0.119288
					CHANNELS 3 Zrotation Yrotation Xrotation
					End Site
					{
						OFFSET 0.000000 0.000000 0.000000
					}
				}
			}
		}
	}
	JOINT RightUpLeg
	{
		OFFSET -0.067670 -0.090522 -0.004320
		CHANNELS 3 Zrotation Yrotation Xrotation
		JOINT RightLeg
		{
			OFFSET -0.038290 -0.382569 -0.008850
			CHANNELS 3 Zrotation Yrotation Xrotation
			JOINT RightFoot
			{
				OFFSET 0.015774 -0.398415 -0.042312
				CHANNELS 3 Zrotation Yrotation Xrotation
				JOINT RightToe
				{
					OFFSET -0.025372 -0.048144 0.123348
					CHANNELS 3 Zrotation Yrotation Xrotation
					End Site
					{
						OFFSET 0.000000 0.000000 0.000000
					}
				}
			}
		}
	}
	JOINT Spine
	{
		OFFSET -0.002533 0.108963 -0.026696
		CHANNELS 3 Zrotation Yrotation Xrotation
		JOINT Spine1
		{
			OFFSET 0.005487 0.135180 0.001092
			CHANNELS 3 Zrotation Yrotation Xrotation
			JOINT Spine2
			{
				OFFSET 0.001457 0.052922 0.025425
				CHANNELS 3 Zrotation Yrotation Xrotation
				JOINT Neck
				{
					OFFSET -0.002778 0.213870 -0.042857
					CHANNELS 3 Zrotation Yrotation Xrotation
					JOINT Head
					{
						OFFSET 0.005152 0.064970 0.051349
						CHANNELS 3 Zrotation Yrotation Xrotation
						End Site
						{
							OFFSET 0.000000 0.000000 0.000000
						}
					}
				}
				JOINT LeftShoulder
				{
					OFFSET 0.078845 0.121749 -0.034090
					CHANNELS 3 Zrotation Yrotation Xrotation
					JOINT LeftArm
					{
						OFFSET 0.090977 0.030469 -0.008868
						CHANNELS 3 Zrotation Yrotation Xrotation
						JOINT LeftForeArm
						{
							OFFSET 0.259612 -0.012772 -0.027456
							CHANNELS 3 Zrotation Yrotation Xrotation
							JOINT LeftHand
							{
								OFFSET 0.249234 0.008986 -0.001171
								CHANNELS 3 Zrotation Yrotation Xrotation
								End Site
								{
									OFFSET 0.000000 0.000000 0.000000
								}
							}
						}
					}
				}
				JOINT RightShoulder
				{
					OFFSET -0.081759 0.118833 -0.038615
					CHANNELS 3 Zrotation Yrotation Xrotation
					JOINT RightArm
					{
						OFFSET -0.096012 0.032551 -0.009143
						CHANNELS 3 Zrotation Yrotation Xrotation
						JOINT RightForeArm
						{
							OFFSET -0.253742 -0.013329 -0.021401
							CHANNELS 3 Zrotation Yrotation Xrotation
							JOINT RightHand
							{
								OFFSET -0.255298 0.007772 -0.005559
								CHANNELS 3 Zrotation Yrotation Xrotation
								End Site
								{
									OFFSET 0.000000 0.000000 0.000000
								}
							}
						}
					}
				}
			}
		}
	}
}
MOTION
Frames: 18
Frame Time: 0.050000
0.063722 0.672757 1.089912 -5.310308 -8.653809 55.071822 1.684091 -0.532267 -2.600110 -5.096506 1.167404 13.675862 0.510328 7.462341 31.515894 0.000000 0.000000 0.000000 -0.898167 0.360521 -3.031964 -0.151048 0.620070 11.132832 2.832341 -4.119019 19.769963 0.000000 0.000000 0.000000 6.412388 -1.305711 0.493266 -5.876059 1.590092 -30.733977 -2.987144 6.666016 29.103506 14.259866 -2.757386 -41.981746 0.000000 0.000000 0.000000 -0.785207 -6.014841 2.333494 -53.911574 -12.836546 -1.798328 -27.806257 -54.410250 18.883738 0.000000 0.000000 0.000000 14.953209 -0.510440 -1.542738 58.274839 4.310958 -5.278344 38.770668 44.304706 18.043232 0.000000 0.000000 0.000000 
0.062489 0.670340 1.098143 -5.110350 -8.508180 56.625911 1.609007 -0.568878 -3.066710 -5.115942 1.082124 12.345721 0.235711 7.172116 31.765723 0.000000 0.000000 0.000000 -1.587702 0.529763 -3.552916 0.656807 0.451081 10.513155 2.912177 -4.021914 20.106790 0.000000 0.000000 0.000000 6.863102 -1.352871 -0.325095 -6.435922 1.653099 -30.634680 -3.027832 6.761346 28.708157 14.595614 -2.902465 -41.511746 0.000000 0.000000 0.000000 -0.949004 -4.839702 1.859359 -53.529863 -11.169223 -2.453630 -33.706904 -55.919435 22.962346 0.000000 0.000000 0.000000 14.095625 -2.511334 -2.530783 58.515563 1.066766 -6.730203 45.115815 44.636979 21.006311 0.000000 0.000000 0.000000 
0.061370 0.668060 1.104800 -4.913736 -8.290722 58.341669 1.713080 -0.612933 -3.368792 -5.022589 0.982060 11.112260 0.134756 7.087675 31.990564 0.000000 0.000000 0.000000 -1.938158 0.647497 -4.124431 0.922346 0.360902 9.625852 2.549084 -4.560778 20.231760 0.000000 0.000000 0.000000 6.622569 -1.270961 -1.009468 -6.225100 1.624515 -30.622471 -3.269802 6.524772 28.981015 14.298150 -2.664012 -42.141714 0.000000 0.000000 0.000000 -0.374252 -3.378852 1.271581 -54.455256 -10.113863 -2.841912 -39.292948 -58.144046 27.666575 0.000000 0.000000 0.000000 12.800919 -4.047357 -3.204122 58.908785 -2.383767 -8.374178 52.102687 45.241254 24.578640 0.000000 0.000000 0.000000 
0.060151 0.666994 1.109749 -4.929690 -7.872118 59.953546 2.390965 -0.735956 -3.772681 -5.404082 0.986464 9.833401 0.350724 7.157769 31.188306 0.000000 0.000000 0.000000 -1.942851 0.746013 -5.145533 1.397857 0.277575 9.337075 2.547541 -4.317348 19.764626 0.000000 0.000000 0.000000 7.102396 -1.368836 -1.435818 -6.445551 1.640443 -30.519122 -3.223679 6.431193 28.546346 14.221480 -2.629178 -41.775059 0.000000 0.000000 0.000000 -0.239997 -2.059822 0.739558 -55.098469 -8.388897 -3.469685 -45.946452 -59.707564 32.991019 0.000000 0.000000 0.000000 11.371767 -5.993156 -4.013893 59.300601 -6.010990 -10.028542 59.655848 44.619589 27.793084 0.000000 0.000000 0.000000 
0.058718 0.664407 1.113467 -4.882603 -7.610239 62.006935 2.846108 -0.842382 -4.322720 -5.526957 0.937462 8.504640 0.601031 7.423824 31.285134 0.000000 0.000000 0.000000 -1.817007 0.810873 -6.002905 1.339994 0.224230 7.928215 2.425794 -4.998344 21.173560 0.000000 0.000000 0.000000 7.098784 -1.352636 -1.964290 -6.307015 1.630024 -30.836010 -3.267895 6.252279 28.906706 13.977755 -2.406031 -42.430367 0.000000 0.000000 0.000000 0.117644 -0.723159 0.214410 -56.175632 -6.723079 -4.145535 -53.391550 -61.538875 39.605904 0.000000 0.000000 0.000000 9.453660 -7.354539 -4.395314 60.034478 -9.175270 -11.669161 66.635623 44.224396 31.024153 0.000000 0.000000 0.000000 
0.057145 0.661789 1.116234 -5.179980 -7.392269 63.875452 3.297871 -0.951602 -4.958867 -5.417262 0.863789 7.427367 0.623480 7.209475 30.371570 0.000000 0.000000 0.000000 -2.103646 0.978755 -7.235315 1.871490 0.127606 7.052455 2.649948 -4.984872 22.219858 0.000000 0.000000 0.000000 7.083422 -1.376037 -2.152584 -6.187691 1.603660 -30.645782 -3.247287 6.082984 28.367730 14.300117 -2.551094 -41.893514 0.000000 0.000000 0.000000 0.151243 0.049339 -0.090348 -56.481492 -4.418196 -5.038231 -59.665584 -63.402100 45.727441 0.000000 0.000000 0.000000 8.687300 -8.460298 -4.845107 60.580814 -11.823700 -12.956137 70.891330 43.389758 32.396304 0.000000 0.000000 0.000000 
0.055580 0.657992 1.118378 -5.082440 -7.011840 65.788954 3.566530 -1.035054 -5.503621 -5.712322 0.859104 6.406427 1.232062 8.034572 30.946511 0.000000 0.000000 0.000000 -2.402988 1.100023 -7.908228 2.340338 0.030338 5.702094 2.309824 -5.544499 22.692071 0.000000 0.000000 0.000000 6.888576 -1.373863 -2.268891 -6.166519 1.598252 -30.637307 -3.157016 5.305586 28.515272 14.017440 -2.398002 -42.220837 0.000000 0.000000 0.000000 1.609551 1.599768 -0.654510 -58.739386 -2.413763 -5.824426 -68.317922 -63.358690 52.852109 0.000000 0.000000 0.000000 7.142584 -9.255476 -5.015371 61.478462 -13.774477 -14.152662 75.395739 42.507098 33.820035 0.000000 0.000000 0.000000 
0.054242 0.653432 1.119813 -5.277131 -6.737747 67.474277 3.879010 -1.120915 -5.985428 -5.985094 0.864273 5.573361 1.632045 8.471903 31.034724 0.000000 0.000000 0.000000 -2.564522 1.187302 -8.464363 2.648840 -0.022263 4.835753 2.228098 -5.618920 22.715163 0.000000 0.000000 0.000000 6.787413 -1.381409 -2.444704 -5.929729 1.563643 -30.402407 -3.172446 4.970693 28.459930 13.679584 -2.275597 -42.126245 0.000000 0.000000 0.000000 2.429622 2.544900 -0.994857 -60.008240 0.391910 -7.045116 -75.944835 -63.530859 59.401858 0.000000 0.000000 0.000000 6.080073 -9.806083 -5.106293 61.771498 -15.100894 -14.863485 78.961869 42.103930 35.237424 0.000000 0.000000 0.000000 
0.053416 0.648909 1.120753 -5.671107 -6.512795 68.769088 4.352442 -1.220338 -6.514746 -6.420062 0.956206 5.890328 1.400198 8.105002 30.906807 0.000000 0.000000 0.000000 -2.723401 1.238492 -8.634907 2.655021 -0.022501 4.713474 2.652498 -4.783263 22.221498 0.000000 0.000000 0.000000 6.618127 -1.416866 -2.088239 -5.681063 1.531766 -30.195308 -2.960849 5.109869 28.502300 13.697022 -2.101178 -42.761053 0.000000 0.000000 0.000000 4.083516 3.497518 -1.297959 -61.336877 2.284374 -7.937815 -79.528091 -61.838617 60.712101 0.000000 0.000000 0.000000 4.799809 -10.128630 -4.984138 61.790075 -15.677130 -15.096448 80.298602 41.959290 35.851304 0.000000 0.000000 0.000000 
0.053141 0.644224 1.121273 -5.602263 -6.022471 69.865586 4.957601 -1.342064 -7.079487 -7.000555 1.074220 6.434583 1.732379 8.364415 29.971542 0.000000 0.000000 0.000000 -2.711781 1.227278 -8.392573 2.405204 -0.001199 4.753933 2.596694 -4.673835 21.996158 0.000000 0.000000 0.000000 6.581022 -1.548164 -1.265140 -5.625678 1.510808 -30.076036 -2.616373 4.785170 28.409388 13.199829 -1.899221 -42.660646 0.000000 0.000000 0.000000 4.643677 3.653358 -1.335820 -62.077756 4.346973 -8.897008 -81.446839 -60.835129 61.167522 0.000000 0.000000 0.000000 3.864593 -9.918664 -4.729020 61.407805 -15.890399 -15.001497 81.636088 42.473628 36.988429 0.000000 0.000000 0.000000 
0.053475 0.639860 1.121643 -5.691795 -5.624515 71.403826 5.090495 -1.414252 -7.767549 -7.475466 1.201806 7.297841 1.406798 8.012832 30.169681 0.000000 0.000000 0.000000 -2.594530 1.231548 -8.504672 2.142382 0.037539 5.230007 2.285257 -4.667193 20.768986 0.000000 0.000000 0.000000 6.392479 -1.613972 -0.699840 -5.525482 1.485100 -29.962827 -2.272274 4.785050 28.243603 13.069126 -1.711703 -43.007409 0.000000 0.000000 0.000000 7.046011 4.208498 -1.400801 -63.608082 5.998740 -9.760602 -82.915394 -58.574004 59.857198 0.000000 0.000000 0.000000 2.867429 -9.555262 -4.370798 60.311861 -15.709701 -14.445214 81.798126 42.946444 37.521378 0.000000 0.000000 0.000000 
0.053998 0.635636 1.121863 -5.594951 -5.280518 72.712960 5.108111 -1.453374 -8.198824 -7.715591 1.279222 7.937426 1.223997 7.831456 30.204267 0.000000 0.000000 0.000000 -2.639261 1.245554 -8.450591 1.502091 0.124292 6.038471 2.683523 -3.914906 20.605009 0.000000 0.000000 0.000000 6.176173 -1.687219 0.175826 -5.300326 1.442590 -29.530305 -2.207484 4.787611 27.727293 12.161507 -1.354229 -42.913121 0.000000 0.000000 0.000000 8.801809 4.237521 -1.282590 -64.417209 8.116044 -10.864801 -83.748024 -56.835385 58.347353 0.000000 0.000000 0.000000 1.760076 -9.247573 -4.030585 60.491244 -15.607143 -14.284857 81.736694 44.211287 38.737564 0.000000 0.000000 0.000000 
0.054423 0.631058 1.122061 -5.677893 -5.052998 74.082027 5.143477 -1.486830 -8.460518 -7.703793 1.305822 8.409901 0.868090 7.416527 30.309310 0.000000 0.000000 0.000000 -2.405373 1.218308 -8.484966 1.009473 0.215386 7.019760 2.503599 -3.807020 19.547013 0.000000 0.000000 0.000000 5.838181 -1.682361 0.740028 -5.140173 1.426611 -29.786410 -2.087207 4.724979 28.185564 12.261320 -1.296326 -43.252162 0.000000 0.000000 0.000000 11.670447 5.201766 -1.392923 -65.909021 10.145253 -12.091399 -84.918215 -53.537569 55.827730 0.000000 0.000000 0.000000 0.582204 -9.167293 -3.783645 59.943603 -15.465944 -14.031113 81.986723 43.430929 38.178676 0.000000 0.000000 0.000000 
0.054368 0.626027 1.122209 -5.613846 -4.951906 75.257602 5.426401 -1.546798 -8.455004 -7.871511 1.352250 8.626594 0.872090 7.324154 29.995216 0.000000 0.000000 0.000000 -2.326185 1.202237 -8.370843 0.463140 0.313862 7.828747 3.100740 -2.347537 18.312987 0.000000 0.000000 0.000000 5.472668 -1.668881 1.409127 -4.929572 1.385431 -28.957170 -2.255720 4.527480 27.136458 11.109691 -0.888557 -43.197060 0.000000 0.000000 0.000000 13.543543 5.318671 -1.248503 -66.978450 12.820804 -13.568137 -85.783563 -50.924922 53.432840 0.000000 0.000000 0.000000 -0.776862 -8.917757 -3.447244 60.658874 -16.022536 -14.362114 81.669339 44.224339 38.601564 0.000000 0.000000 0.000000 
0.053882 0.621868 1.122043 -5.583819 -4.692834 76.502749 5.348604 -1.561256 -8.655729 -6.945759 1.181706 8.917258 0.627710 7.051410 29.993725 0.000000 0.000000 0.000000 -1.946673 1.150236 -8.495109 0.231600 0.389831 8.819617 3.087798 -2.464206 18.571743 0.000000 0.000000 0.000000 5.096971 -1.633073 1.991305 -4.872208 1.381789 -29.268859 -2.049353 4.472459 27.226079 11.054807 -0.847810 -43.093981 0.000000 0.000000 0.000000 15.778444 6.812077 -1.443131 -68.458202 15.727074 -15.489153 -86.067704 -46.759881 49.095372 0.000000 0.000000 0.000000 -2.152748 -9.323393 -3.362559 61.491480 -17.109808 -15.077332 83.049425 42.841431 38.132385 0.000000 0.000000 0.000000 
0.053019 0.618494 1.121355 -5.339460 -4.321028 77.567437 5.362693 -1.596299 -8.713523 -6.259857 1.046761 9.131607 0.626890 7.049224 29.712478 0.000000 0.000000 0.000000 -1.647143 1.081066 -8.293031 -0.138383 0.463660 9.404140 3.766231 -1.405038 18.876599 0.000000 0.000000 0.000000 4.763892 -1.598145 2.402093 -4.767605 1.361520 -28.721098 -2.123346 3.902917 26.661284 9.830320 -0.482947 -42.972008 0.000000 0.000000 0.000000 17.899346 7.712331 -1.454254 -69.936296 18.154146 -17.054811 -86.554533 -43.891820 46.306828 0.000000 0.000000 0.000000 -4.006894 -9.543437 -3.115033 62.838379 -17.934989 -15.860974 83.969224 42.666268 38.417547 0.000000 0.000000 0.000000 
0.052105 0.616035 1.120145 -5.229748 -4.138588 78.479681 5.508921 -1.637090 -8.669912 -5.825246 0.983525 9.553203 0.504742 6.857615 29.477539 0.000000 0.000000 0.000000 -1.301755 1.002397 -8.141948 -0.215147 0.504557 9.992316 4.031551 -1.004192 18.992521 0.000000 0.000000 0.000000 4.449430 -1.510659 2.317305 -4.578948 1.333758 -28.566079 -2.052418 3.846869 26.597268 9.532002 -0.384050 -42.902963 0.000000 0.000000 0.000000 19.211424 8.677318 -1.509126 -70.839260 20.095872 -18.486030 -87.155471 -41.148637 43.671190 0.000000 0.000000 0.000000 -4.881006 -10.197090 -3.202339 63.041996 -18.961071 -16.385769 85.169648 41.782066 38.287822 0.000000 0.000000 0.000000 
0.051310 0.614064 1.118531 -5.045142 -4.030177 79.053292 5.487937 -1.655963 -8.680660 -5.507823 0.975975 10.655235 0.635246 6.886186 28.575483 0.000000 0.000000 0.000000 -1.398094 0.978589 -7.651394 -0.150152 0.522110 10.607353 4.541993 -0.267950 19.393739 0.000000 0.000000 0.000000 4.122264 -1.429083 2.405753 -4.598803 1.329724 -28.242317 -2.072290 3.515624 26.324553 9.015694 -0.222919 -42.893680 0.000000 0.000000 0.000000 20.210744 9.563698 -1.588686 -71.043354 21.542957 -19.305621 -87.975520 -38.793449 41.689492 0.000000 0.000000 0.000000 -5.227583 -10.548736 -3.280369 63.157034 -19.527339 -16.670850 85.526010 41.809147 38.426228 0.000000 0.000000 0.000000 
